Coordinates
version=1
nRows=17
nColumns=40
inDegrees=yes

Units are S.I. units (second, meters, Newtons, ...)
Angles are in degrees.

endheader
time	pelvis_tilt	pelvis_list	pelvis_rotation	pelvis_tx	pelvis_ty	pelvis_tz	hip_flexion_r	hip_adduction_r	hip_rotation_r	knee_angle_r	knee_angle_r_beta	ankle_angle_r	subtalar_angle_r	mtp_angle_r	hip_flexion_l	hip_adduction_l	hip_rotation_l	knee_angle_l	knee_angle_l_beta	ankle_angle_l	subtalar_angle_l	mtp_angle_l	lumbar_extension	lumbar_bending	lumbar_rotation	arm_flex_r	arm_add_r	arm_rot_r	elbow_flex_r	pro_sup_r	wrist_flex_r	wrist_dev_r	arm_flex_l	arm_add_l	arm_rot_l	elbow_flex_l	pro_sup_l	wrist_flex_l	wrist_dev_l
     47.59000000	     -5.30172391	     -5.41127405	      2.60862823	      1.01879731	      0.92615368	      0.52491351	     17.18505777	      2.40524112	    -13.74602487	     18.87699607	     18.87699607	      9.00517457	     -3.90369263	     -3.88247922	     34.30676028	    -10.04060742	      3.43448333	     68.24411496	     68.24411496	      5.82772359	    -18.74369039	     12.83261603	    -12.92885177	      8.26034673	      3.12572477	     12.31439031	    -21.66678906	     -1.59582299	     57.84736936	     45.75030794	      0.00000000	      0.00000000	      0.95852258	    -10.13420421	     -1.00114030	     60.88114171	     46.63429711	      0.00000000	      0.00000000
     47.60221429	     -5.43451047	     -5.43991747	      2.98889904	      1.01742793	      0.92666596	      0.52571764	     16.56909453	      2.55600386	    -13.90458596	     18.29795890	     18.29795890	      9.16272084	     -4.01555283	     -3.84368771	     35.83654584	    -10.18309502	      3.17402734	     66.37377243	     66.37377243	      6.57271644	    -19.02220615	     13.52985751	    -12.98090061	      8.12550660	      2.49894773	     13.30219193	    -21.24137119	     -1.39190533	     59.19291443	     45.69526743	      0.00000000	      0.00000000	      0.18345520	    -10.27393729	     -0.94249601	     58.34874112	     46.59746788	      0.00000000	      0.00000000
     47.61442857	     -5.59183958	     -5.43285855	      3.31664915	      1.01601425	      0.92709295	      0.52646736	     16.04134934	      2.65607493	    -14.06356042	     17.81448052	     17.81448052	      9.31587011	     -4.06954438	     -3.93164662	     37.23599433	    -10.18161589	      2.92688078	     64.31913120	     64.31913120	      7.87009119	    -19.14597497	     16.00601345	    -12.99902341	      7.99138085	      2.92583749	     13.19098016	    -22.06205669	     -0.45096907	     61.91927147	     45.55150012	      0.00000000	      0.00000000	      1.03999290	     -9.50808913	     -1.35682895	     52.75255742	     46.60044933	      0.00000000	      0.00000000
     47.62664286	     -5.74438702	     -5.37565494	      3.66820940	      1.01472691	      0.92751207	      0.52719581	     15.47119887	      2.70893660	    -14.23048312	     17.27197521	     17.27197521	      9.49845522	     -4.10753929	     -3.84046469	     38.33753475	    -10.13292931	      2.55770781	     61.83494556	     61.83494556	      8.39497321	    -19.24576996	     16.54633489	    -13.04625189	      7.68411605	      2.50601310	     13.92111113	    -21.71668746	     -0.41698790	     63.33582404	     45.50296746	      0.00000000	      0.00000000	      0.21885243	     -9.66333544	     -1.28801030	     50.95994646	     46.57037778	      0.00000000	      0.00000000
     47.63885714	     -5.89166254	     -5.38623966	      4.01077760	      1.01341703	      0.92775956	      0.52766008	     14.97122351	      2.79076581	    -14.46558669	     16.86571309	     16.86571309	      9.76823051	     -4.02081079	     -3.81579909	     39.34549710	     -9.93309500	      2.45823947	     59.28735644	     59.28735644	      9.30063439	    -19.26706001	     18.26438739	    -13.05704040	      7.62118816	      2.97194532	     13.57579259	    -22.51685288	      0.25863293	     66.60894859	     45.36164483	      0.00000000	      0.00000000	      1.29658222	     -9.00211016	     -1.61019835	     45.29866280	     46.56925768	      0.00000000	      0.00000000
     47.65107143	     -6.00868438	     -5.33128860	      4.33109232	      1.01221779	      0.92802974	      0.52804740	     14.42449997	      2.81545271	    -14.63606297	     16.43265533	     16.43265533	      9.99031903	     -3.98842249	     -3.76791688	     40.06112934	     -9.61063341	      2.37393507	     56.40959765	     56.40959765	      9.63771491	    -19.25604486	     18.57899302	    -13.13459712	      7.38991890	      2.56352856	     14.31962355	    -22.09083794	      0.15634070	     68.20400564	     45.31485666	      0.00000000	      0.00000000	      0.54951782	     -9.11805393	     -1.56923832	     43.61184851	     46.54450318	      0.00000000	      0.00000000
     47.66328571	     -6.25273863	     -5.27915719	      4.63461960	      1.01094434	      0.92791062	      0.52817909	     14.10793862	      2.79292438	    -14.78173545	     16.16302508	     16.16302508	     10.26134430	     -4.02296211	     -3.79918548	     40.80322888	     -9.14081530	      2.47784074	     53.43521880	     53.43521880	      9.89326255	    -19.17248561	     18.78771339	    -13.05168423	      7.18000358	      2.62278947	     14.90902349	    -22.11381188	      0.12763289	     69.09361039	     45.28887019	      0.00000000	      0.00000000	     -0.14822944	     -9.04708036	     -1.53419501	     42.63109866	     46.52578342	      0.00000000	      0.00000000
     47.67550000	     -6.35626066	     -5.19041296	      4.92349137	      1.00992573	      0.92804554	      0.52806396	     13.57606486	      2.68569973	    -15.23544219	     15.83990580	     15.83990580	     10.58822782	     -3.45263962	     -3.76672341	     41.10710052	     -8.56900669	      2.71896949	     50.13376305	     50.13376305	      9.67741398	    -19.04193552	     17.66586082	    -13.12302151	      7.06292008	      2.98286119	     14.37870551	    -22.71145607	      0.76587948	     73.33887636	     45.12968251	      0.00000000	      0.00000000	      1.06513459	     -8.51566647	     -1.84513641	     36.88743725	     46.53129968	      0.00000000	      0.00000000
     47.68771429	     -6.53333751	     -5.13618578	      5.18342460	      1.00898535	      0.92790494	      0.52784200	     13.16545673	      2.63763396	    -15.44931624	     15.58157661	     15.58157661	     10.89218812	     -3.27744025	     -3.76846097	     41.39493337	     -7.94102070	      3.20835564	     46.81256572	     46.81256572	      9.63136930	    -18.73397935	     17.02621096	    -13.07486400	      6.91538389	      2.74939279	     14.89875117	    -22.22276857	      0.48113892	     75.15538414	     45.08682634	      0.00000000	      0.00000000	      0.46758838	     -8.50368061	     -1.88559885	     35.40727435	     46.51358092	      0.00000000	      0.00000000
     47.69992857	     -6.65342145	     -5.05130595	      5.39320862	      1.00820658	      0.92776827	      0.52744056	     12.72304743	      2.51937204	    -15.78295612	     15.42670184	     15.42670184	     11.28590477	     -2.84973480	     -3.74579503	     41.37814659	     -7.33843093	      3.69834162	     43.25920464	     43.25920464	      9.03494454	    -18.25294115	     14.81720415	    -13.10458453	      6.76245405	      3.07637055	     14.83283183	    -22.30094644	      0.58134324	     77.57675680	     45.01777356	      0.00000000	      0.00000000	      0.43409764	     -8.29361487	     -1.97797304	     33.27321839	     46.49685954	      0.00000000	      0.00000000
     47.71214286	     -6.77737094	     -4.98174246	      5.54811541	      1.00766042	      0.92752357	      0.52700652	     12.26025937	      2.47032113	    -15.84281202	     15.22647920	     15.22647920	     11.62452851	     -2.76994277	     -3.79809801	     41.30928277	     -6.80850541	      4.25020669	     39.88914482	     39.88914482	      9.30938825	    -17.21565595	     14.56203021	    -13.04036853	      6.60413553	      2.95989233	     15.48614749	    -21.76509037	      0.59710913	     78.77154690	     44.98414233	      0.00000000	      0.00000000	     -0.34638571	     -8.30716584	     -1.93888190	     32.58833226	     46.47359264	      0.00000000	      0.00000000
     47.72435714	     -6.84271250	     -4.99751440	      5.67054869	      1.00739371	      0.92716542	      0.52646093	     11.73585959	      2.46352142	    -16.16534258	     15.08473228	     15.08473228	     12.09662379	     -2.18902893	     -3.72352737	     41.00688075	     -6.50856924	      4.64927381	     36.42627644	     36.42627644	      8.85988661	    -15.90348193	     12.16758791	    -13.02735349	      6.59879548	      3.10643039	     15.65258060	    -21.70946757	      1.13924552	     81.15180004	     44.90821409	      0.00000000	      0.00000000	     -0.79926956	     -8.20057473	     -1.89460410	     31.38440208	     46.43551338	      0.00000000	      0.00000000
     47.73657143	     -6.87669875	     -4.97104616	      5.71867690	      1.00737432	      0.92681260	      0.52591826	     11.18357370	      2.47152810	    -16.13470783	     14.95648640	     14.95648640	     12.46666756	     -2.12431061	     -3.77870035	     40.61723646	     -6.27387060	      4.90196275	     33.26410216	     33.26410216	      9.28925134	    -14.21657525	     12.06631226	    -12.98778128	      6.50008233	      3.13322143	     16.24916390	    -21.07725451	      1.23359427	     82.15433406	     44.87914230	      0.00000000	      0.00000000	     -1.58501931	     -8.19424606	     -1.84987045	     30.94750162	     46.41157618	      0.00000000	      0.00000000
     47.74878571	     -6.87101228	     -4.99071425	      5.71576889	      1.00764847	      0.92635459	      0.52531361	     10.56477920	      2.52740332	    -16.13069941	     14.81810130	     14.81810130	     12.87186541	     -1.90901579	     -3.81277328	     40.11809358	     -6.19131121	      4.95527972	     30.35030747	     30.35030747	      9.69700497	    -12.47564313	     11.93896461	    -12.97434505	      6.47105069	      3.15456249	     16.77533451	    -20.46106775	      1.54895151	     83.39528832	     44.83568857	      0.00000000	      0.00000000	     -2.39817333	     -8.16703735	     -1.80433849	     30.59573289	     46.38663071	      0.00000000	      0.00000000
     47.76100000	     -6.87475750	     -5.04166858	      5.66973771	      1.00820137	      0.92571552	      0.52465124	      9.96764644	      2.61523015	    -16.09475055	     14.73743110	     14.73743110	     13.32473764	     -1.77906969	     -3.87482297	     39.57441883	     -6.19122124	      4.83150519	     27.73354857	     27.73354857	      9.99581308	    -11.04485611	     12.04081477	    -12.81725432	      6.46883206	      3.33835237	     17.20833520	    -19.93799157	      1.87930292	     84.37524541	     44.79841754	      0.00000000	      0.00000000	     -3.14627873	     -8.09752927	     -1.77627610	     30.38270363	     46.36701952	      0.00000000	      0.00000000
     47.77321429	     -6.75091399	     -5.16247196	      5.55653316	      1.00915628	      0.92505183	      0.52399251	      9.20422918	      2.78420776	    -16.08340619	     14.65443523	     14.65443523	     13.94921487	     -1.37102523	     -3.55311579	     38.90139556	     -6.39084890	      4.35136928	     25.57803357	     25.57803357	     10.17229516	     -9.61607706	     11.67174687	    -12.82736553	      6.56661633	      3.41544409	     17.55778279	    -19.58763641	      2.95987705	     86.13471518	     44.72741223	      0.00000000	      0.00000000	     -4.20307815	     -8.07703218	     -1.77885628	     30.74459096	     46.33309967	      0.00000000	      0.00000000
     47.78542857	     -6.67716641	     -5.19407616	      5.39597688	      1.01030805	      0.92425838	      0.52322151	      8.52149111	      2.85694449	    -15.86079717	     14.64514950	     14.64514950	     14.44666390	     -1.31211653	     -3.58649740	     38.17258316	     -6.46840336	      3.84575211	     23.72928018	     23.72928018	     10.23167867	     -8.86147217	     11.88481046	    -12.68382912	      6.53742352	      3.63196216	     17.91932629	    -18.91307092	      3.28376805	     86.82795744	     44.70114953	      0.00000000	      0.00000000	     -4.96647285	     -8.02259981	     -1.76876839	     30.65101797	     46.31446548	      0.00000000	      0.00000000
